<?xml version="1.0" encoding="UTF-8"?>
<svg id="Lag_1" data-name="Lag 1" xmlns="http://www.w3.org/2000/svg" viewBox="0 0 1035.6 544.36">
  <defs>
    <style>
      .cls-1 {
        fill: #000000;
      }
    </style>
  </defs>
  <path id="path3" class="cls-1" d="M474.93,309.12c-19.37,0-35.07-15.69-35.07-35.07s15.7-35.07,35.07-35.07,35.07,15.71,35.07,35.07-15.7,35.07-35.07,35.07h0ZM510,164.82c-86.22,0-156.12,69.89-156.12,156.12s69.9,156.12,156.12,156.12,156.12-69.91,156.12-156.12-69.9-156.12-156.12-156.12"/>
  <path id="path4" class="cls-1" d="M757.61,456.18c-78.84,31.97-162.15,48.19-247.62,48.19s-168.78-16.21-247.62-48.19c-77.54-31.44-147.51-76.91-208.18-135.24,60.67-58.33,130.64-103.81,208.18-135.25,78.84-31.96,162.15-48.17,247.62-48.17s168.78,16.21,247.62,48.17c77.54,31.44,147.51,76.92,208.18,135.25-60.66,58.33-130.64,103.8-208.18,135.24h0ZM1031.3,201.64l-.2-.19c-5.37-4.88-13.68-4.48-18.56.88l-53.43,58.79c-18.47-15.57-37.65-30.12-57.5-43.6l45.14-66.88c4.06-6.01,2.47-14.17-3.54-18.24l-.22-.15c-6.01-4.07-14.18-2.48-18.24,3.53l-45.38,67.24c-20.31-12.68-41.28-24.29-62.87-34.84l35.64-74.08c3.15-6.55.39-14.39-6.15-17.53l-.24-.12c-6.54-3.15-14.39-.4-17.54,6.15l-35.79,74.4c-6.54-2.88-13.13-5.69-19.77-8.39-15.58-6.32-31.32-12.05-47.21-17.2l24.88-79.53c2.17-6.92-1.69-14.29-8.62-16.47l-.25-.08c-6.93-2.16-14.3,1.69-16.46,8.63l-24.95,79.75c-22.99-6.51-46.27-11.79-69.8-15.88l13.3-83.01c1.15-7.17-3.73-13.91-10.9-15.05l-.26-.04c-7.17-1.16-13.91,3.72-15.05,10.89l-13.32,83.17c-23.56-3.17-47.34-5.15-71.29-5.91l1.28-84.55c.11-7.25-5.68-13.21-12.94-13.33h-.27c-7.26-.11-13.23,5.68-13.34,12.93l-1.28,84.6c-23.97.12-47.79,1.45-71.39,3.97l-10.82-83.84c-.93-7.2-7.52-12.28-14.71-11.36l-.27.04c-7.2.93-12.28,7.52-11.35,14.71l10.81,83.79c-23.62,3.44-47.01,8.11-70.13,13.96l-22.66-81.08c-1.95-6.99-9.2-11.08-16.19-9.12l-.26.07c-6.99,1.96-11.07,9.2-9.12,16.2l22.62,80.95c-22.07,6.49-43.86,14.09-65.35,22.8-.73.31-1.46.61-2.19.91l-33.87-76.36c-2.94-6.63-10.71-9.63-17.34-6.68l-.25.11c-6.63,2.95-9.63,10.71-6.68,17.35l33.76,76.11c-21.85,9.93-43.09,20.95-63.68,33.03l-43.97-69.68c-3.87-6.15-11.99-7.97-18.12-4.11l-.22.15c-6.14,3.87-7.97,11.99-4.1,18.12l43.78,69.37c-20.18,12.91-39.69,26.85-58.51,41.84l-52.63-61.55c-4.72-5.52-13.01-6.16-18.53-1.45l-.2.17c-5.52,4.72-6.16,13.01-1.45,18.53l52.35,61.23c-13.41,11.53-26.44,23.63-39.07,36.25l-4.84,4.84c-3.75,3.75-5.86,8.84-5.86,14.15s2.11,10.39,5.86,14.13l4.84,4.85c66.62,66.61,144.31,118.2,230.91,153.32,83.63,33.92,172,51.12,262.65,51.12s179.01-17.2,262.65-51.12c86.6-35.12,164.29-86.71,230.91-153.32l4.84-4.85c7.81-7.8,7.81-20.47,0-28.28l-4.84-4.84c-8-8-16.16-15.77-24.47-23.33l53.1-58.41c4.88-5.37,4.49-13.68-.88-18.56"/>
</svg>
